<?xml version="1.0" encoding="utf-8"?>
<!-- Designed by Vexels.com - 2019 All Rights Reserved - https://vexels.com/terms-and-conditions/  -->
<svg version="1.1" id="Capa_1" xmlns="http://www.w3.org/2000/svg" xmlns:xlink="http://www.w3.org/1999/xlink" x="0px" y="0px"
	 viewBox="0 0 1200 1200" enable-background="new 0 0 1200 1200" xml:space="preserve">
<g>
	<path fill="#1D3D6F" d="M1149.026,845.075c-2.341-8.468-8.667-15.254-16.921-18.157c-36.81-12.931-68.534-41.701-130.566-118.387
		c-21.989-27.186-47.828-41.269-76.797-41.855c-0.622-0.009-1.236-0.019-1.853-0.019c-26.686,0-51.217,11.576-69.997,24.15
		c-0.282-16.4-6.622-32.714-19.109-45.2l-17.275-17.275c16.249-47.548,8.946-101.647-21.667-143.935
		c-6.273-8.667-12.602-17.177-18.961-25.598c33.766-17.912,52.603-41.969,62.674-59.969c12.778-22.834,8.625-51.857-10.093-70.576
		L726.881,226.679c-24.52-24.525-57.247-38.03-92.153-38.03c-32.97,0-63.989,12.065-87.997,34.072
		c-55.608-42.981-113.384-78.466-173.121-106.19C247.27,57.898,145.028,49.737,94.99,50.008c-11.737,0.078-22.429,4.73-30.46,12.209
		c-0.435,0.329-0.877,0.644-1.274,1.041c-0.397,0.397-0.714,0.84-1.043,1.276c-7.478,8.032-12.129,18.724-12.204,30.46
		c-0.325,49.707,7.85,151.923,66.235,277.997c27.765,59.956,63.35,117.939,106.481,173.742
		c-46.801,51.07-45.494,130.692,3.959,180.14l101.573,101.578c11.463,11.459,26.782,17.46,42.18,17.46
		c9.754,0,19.541-2.411,28.398-7.367c17.995-10.062,42.05-28.893,59.966-62.661c7.785,5.879,15.64,11.735,23.636,17.541
		c27.488,19.959,60.183,29.996,92.91,29.996c18.393-0.003,36.786-3.219,54.274-9.588l17.967,17.967
		c11.872,11.876,27.518,18.565,44.228,19.094c-13.282,19.261-25.968,45.195-25.389,73.556c0.595,29.039,14.761,54.976,42.101,77.09
		c76.686,62.032,105.456,93.756,118.387,130.566c2.898,8.254,9.684,14.576,18.147,16.917c2.374,0.655,4.789,0.975,7.195,0.975
		c6.219,0,12.327-2.151,17.218-6.215c12.491-10.388,41.661-39.449,46.716-86.8c27.241,14.738,85.465,43.278,172.037,70.464
		c3.112,0.98,6.294,1.454,9.443,1.454c8.161,0,16.108-3.196,22.068-9.16c8.263-8.263,11.217-20.335,7.706-31.51
		c-27.205-86.631-55.767-144.877-70.496-172.094c47.346-5.058,76.448-34.17,86.832-46.658
		C1149.416,862.706,1151.376,853.584,1149.026,845.075z"/>
	<path fill="#FFFFFF" d="M793.984,960.786c-0.302,0.209-0.464,0.139-0.557,0.093c-70.414-33.839-54.837-114.972-50.864-131.371
		l88.84-88.84c16.363-3.594,94.281-16.554,127.96,53.132c-0.009,0.005-0.056,0.543-0.683,0.474
		c-12.211-1.291-24.018-0.72-37.154,1.816c-11.148,2.155-19.355,12.035-19.522,23.475l-1.189,80.876
		c-0.005,0.279-0.228,0.506-0.506,0.516l-82.329,2.137c-11.617,0.297-21.45,8.853-23.377,20.335
		C792.819,933.986,792.698,945.733,793.984,960.786z"/>
	<path fill="#FC448B" d="M779.284,650.679c-21.6,32.363-48.216,61.967-79.295,88.603c-93.529,12.484-177.567-65.309-204.501-93.412
		c66.423-47.322,148.547-124.892,204.516-243.403c25.824,30.03,51.032,61.973,75.569,95.874
		C808.37,543.644,809.856,604.863,779.284,650.679z"/>
	<path fill="#12829A" d="M817.799,387.218c-8.796,15.72-25.651,36.975-56.629,52.4c-6.076-7.785-12.195-15.445-18.346-23.009
		c37.665-19.093,57.645-52.557,66.938-73.422l1.882,1.882C822.871,356.297,825.402,373.63,817.799,387.218z"/>
	<path fill="#E54281" d="M634.727,212.431c28.552,0,55.306,11.031,75.339,31.062l81.425,81.423
		c-5.731,15.358-23.917,54.773-64.306,72.795c-51.372-60.984-105.271-114.376-161.465-159.958
		C584.904,221.407,609.066,212.431,634.727,212.431z"/>
	<path fill="#0C91AC" d="M95.147,73.79c0.864-0.007,1.737-0.009,2.634-0.009c48.761,0,145.894,8.665,265.814,64.322
		c60.686,28.164,119.351,64.585,175.757,109.006c0.071,0.069,0.121,0.152,0.194,0.219c0.618,0.571,1.281,1.059,1.975,1.474
		c48.873,38.707,96.034,83.462,141.332,134.089c-31.367,69.416-72.669,124.884-114.767,168.379L411.45,394.638
		c20.027-23.89,30.954-53.747,30.954-85.295c0-35.542-13.842-68.957-38.975-94.088c-49.044-49.039-127.145-51.698-179.373-8.011
		L91.032,74.22C92.363,73.959,93.734,73.799,95.147,73.79z"/>
	<path fill="#FFFFFF" d="M232.068,386.616c-20.642-20.642-32.007-48.083-32.007-77.274s11.366-56.632,32.007-77.274
		c21.306-21.301,49.291-31.954,77.276-31.954c27.98,0,55.965,10.653,77.271,31.954c20.642,20.642,32.007,48.083,32.007,77.274
		s-11.366,56.632-32.007,77.274C343.999,429.228,274.675,429.219,232.068,386.616z"/>
	<path fill="#12829A" d="M73.791,95.147v-0.002c0.009-1.411,0.168-2.781,0.428-4.11l133.014,133.014
		c-20.027,23.89-30.954,53.747-30.954,85.295c0,35.542,13.842,68.957,38.975,94.088c25.941,25.944,60.011,38.912,94.09,38.912
		c30.346,0,60.683-10.321,85.284-30.9l156.608,156.606c-73.969,70.807-146.54,105.54-168.168,114.952
		c-50.698-45.347-95.512-92.561-134.262-141.488c-0.415-0.693-0.901-1.355-1.47-1.972c-0.091-0.098-0.201-0.166-0.295-0.261
		c-44.543-56.57-81.03-115.413-109.216-176.282C81.385,241.122,73.479,142.868,73.791,95.147z"/>
	<path fill="#E54281" d="M237.757,565.737c45.579,56.188,98.978,110.081,159.958,161.451c-18.027,40.38-57.436,58.567-72.794,64.298
		l-81.424-81.428C204.001,670.561,202.142,607.554,237.757,565.737z"/>
	<path fill="#12829A" d="M387.223,817.791c-13.577,7.594-30.921,5.077-42.152-6.154l-1.881-1.881
		c20.862-9.291,54.321-29.265,73.418-66.921c7.561,6.149,15.233,12.26,23.015,18.333C424.197,792.149,402.94,809,387.223,817.791z"
		/>
	<path fill="#E54281" d="M496.409,774.181c-33.047-23.999-64.231-48.634-93.584-73.859c16.206-7.477,42.08-20.667,72.733-40.803
		c23.441,25.33,99.561,99.351,192.965,104.702c-6.413,4.648-12.985,9.185-19.713,13.606
		C602.543,808.227,541.292,806.764,496.409,774.181z"/>
	<path fill="#0C91AC" d="M652.676,803.258c3.111-1.749,6.186-3.583,9.196-5.561c56.597-37.196,102.753-82.218,137.19-133.817
		c2.632-3.944,5.002-8.009,7.232-12.132l10.674,10.674c15.807,15.807,16.214,41.21,1.331,57.581
		c-0.761,0.811-1.294,1.399-1.602,1.745l-93.238,93.238c-7.887,7.887-18.375,12.23-29.527,12.23c-11.157,0-21.64-4.343-29.527-12.23
		L652.676,803.258z"/>
	<path fill="#FC448B" d="M1125.5,854.271c-12.111,14.562-40.458,40.637-86.889,38.875c-0.744-0.115-1.493-0.159-2.25-0.131
		c-17.827-1.009-38.24-6.078-61.381-17.425c-5.908-2.875-13.019-0.451-15.913,5.444c-2.889,5.894-0.455,13.019,5.444,15.913
		c24.129,11.83,45.864,17.602,65.275,19.362c10.109,17.525,43.695,79.444,74.976,179.046c1.236,3.939-0.873,6.605-1.835,7.571
		c-0.966,0.961-3.618,3.066-7.571,1.835c-99.338-31.198-161.438-64.838-179.029-74.972c-1.763-19.409-7.55-41.153-19.379-65.279
		c-2.894-5.894-10.01-8.319-15.913-5.444c-5.899,2.894-8.333,10.019-5.444,15.913c11.35,23.147,16.42,43.563,17.427,61.393
		c-0.027,0.752,0.017,1.494,0.13,2.234c1.766,46.435-24.313,74.78-38.873,86.889c-1.101,0.92-2.257,0.78-2.875,0.604
		c-0.701-0.195-1.626-0.678-2.048-1.881c-14.622-41.627-45.208-75.929-125.865-141.166c-21.608-17.483-32.806-37.33-33.276-59.003
		c-0.536-24.686,12.488-48.127,24.874-64.731c-1.231,38.112,8.322,94.297,68.046,122.996c3.316,1.593,6.898,2.378,10.469,2.378
		c4.947,0,9.88-1.505,14.074-4.459c7.195-5.063,11.101-13.609,10.2-22.3c-1.291-12.462-1.236-22.17,0.181-30.563
		c0.046-0.288,0.274-0.497,0.539-0.506l82.33-2.137c13.084-0.339,23.48-10.855,23.675-23.939l1.189-80.876
		c0.005-0.283,0.186-0.46,0.251-0.474c10.897-2.095,20.205-2.555,30.15-1.514c8.774,0.915,17.441-3.001,22.537-10.251
		c5.105-7.264,5.857-16.345,2.011-24.292c-28.353-58.689-82.43-69.588-119.456-69.393c16.316-11.792,38.401-23.55,61.604-23.55
		c0.483,0,0.975,0.005,1.463,0.019c21.598,0.46,41.353,11.575,58.706,33.029c65.237,80.657,99.539,111.244,141.165,125.865
		c1.208,0.423,1.691,1.352,1.886,2.053C1126.266,852.005,1126.41,853.175,1125.5,854.271z"/>
	<path fill="#1D3D6F" d="M252.092,631.603c-6.636,0-12.016,5.38-12.016,12.016c0,6.636,5.38,12.016,12.016,12.016
		c6.636,0,12.016-5.38,12.016-12.016C264.108,636.982,258.728,631.603,252.092,631.603z"/>
	<path fill="#1D3D6F" d="M752.446,339.483c6.636,0,12.016-5.38,12.016-12.016c0-6.636-5.38-12.016-12.016-12.016
		s-12.016,5.38-12.016,12.016C740.43,334.104,745.81,339.483,752.446,339.483z"/>
	<path fill="#1D3D6F" d="M550.82,634.124c-6.636,0-12.016,5.38-12.016,12.016s5.38,12.016,12.016,12.016
		c6.636,0,12.015-5.38,12.015-12.016S557.456,634.124,550.82,634.124z"/>
	<path fill="#1D3D6F" d="M373.735,244.949c-18.741-18.742-43.68-27.487-68.277-26.446c-1.011-0.1-2.043-0.023-3.079,0.147
		c-15.55,1.183-30.829,6.314-44.219,15.426c-0.728,0.421-1.391,0.918-2.001,1.469c-3.909,2.82-7.695,5.887-11.211,9.403
		c-35.51,35.507-35.51,93.28,0,128.787c17.401,17.403,40.154,26.22,63.012,26.565c0.457,0.054,0.914,0.11,1.38,0.11
		c0.519,0,1.042-0.049,1.565-0.118c15.429-0.262,30.763-4.454,44.471-12.492c0.675-0.318,1.303-0.69,1.892-1.117
		c5.844-3.621,11.402-7.881,16.468-12.948C409.244,338.229,409.244,280.457,373.735,244.949z M317.889,376.029l-39.648-126.36
		c5.559-2.905,11.494-5.027,17.678-6.273l40.073,127.726C330.255,373.599,324.173,375.236,317.889,376.029z M242.054,309.343
		c0-16.245,5.767-31.576,16.249-43.766l34.154,108.847c-11.504-2.964-22.075-8.882-30.695-17.502
		C249.054,344.212,242.054,327.316,242.054,309.343z M356.92,356.922c-0.114,0.114-0.24,0.209-0.354,0.321l-35.819-114.165
		c13.628,2.317,26.199,8.711,36.173,18.685c12.708,12.711,19.708,29.606,19.708,47.579S369.629,344.212,356.92,356.922z"/>
</g>
</svg>
